<?xml version="1.0" encoding="UTF-8"?>
<svg xmlns="http://www.w3.org/2000/svg" viewBox="0 0 641.25 72.84"><defs><style>.cls-1{fill:#090617;}.cls-2{fill:#72d7f4;}</style></defs><g id="Layer_2" data-name="Layer 2"><g id="Layer_1-2" data-name="Layer 1"><path class="cls-1" d="M136.13,52.41c7.11,0,11.14-5.47,11.14-12s-4-12-11.14-12c-6.9,0-11.61,5.06-11.68,12s4.78,12,11.68,12m.83,5.88a14.37,14.37,0,0,1-12.37-6.22v4.58a.88.88,0,0,1-.88.88h-4.87a.88.88,0,0,1-.88-.88V9a.89.89,0,0,1,.88-.88h4.87a.89.89,0,0,1,.88.88V28.83A14.36,14.36,0,0,1,137,22.62c10.25,0,16.94,8.06,16.94,17.83S147.21,58.29,137,58.29"/><path class="cls-1" d="M168.05,42.64c0,7.24,3.35,9.77,7,9.77S186,50,186,39.22v-15a.88.88,0,0,1,.88-.88h4.87a.88.88,0,0,1,.88.88v32.4a.88.88,0,0,1-.88.88H186.9a.88.88,0,0,1-.88-.88V50.7c-1.43,4.85-5.88,7.59-11.48,7.59-7.38,0-13.12-4.65-13.12-15.65V24.25a.88.88,0,0,1,.88-.88h4.87a.87.87,0,0,1,.88.88Z"/><path class="cls-1" d="M227.5,23.37h5.78a.88.88,0,0,1,.81,1.22L213.86,72.3a.88.88,0,0,1-.81.54h-4.56a.89.89,0,0,1-.82-1.2l5.89-15.27L199.68,24.6a.88.88,0,0,1,.81-1.23h5.65a.86.86,0,0,1,.81.54l10.24,25,9.48-24.92a.88.88,0,0,1,.83-.57"/><path class="cls-1" d="M45.13,46.05,56.34,10.32a.89.89,0,0,1,.84-.62h5A.88.88,0,0,1,63,10.85L48.67,56.91a.89.89,0,0,1-.85.62H43.25a.87.87,0,0,1-.84-.62l-10-32.58a.88.88,0,0,0-1.68,0l-10,32.58a.89.89,0,0,1-.84.62H15.23a.87.87,0,0,1-.84-.62L0,10.85A.89.89,0,0,1,.88,9.7h5a.88.88,0,0,1,.84.62L17.93,46.05l10.6-34.16a.89.89,0,0,1,.84-.62h4.31a.87.87,0,0,1,.84.62Z"/><path class="cls-1" d="M71.78,35.94H93.51c-1.84-6.22-6.7-7.51-10.45-7.51-4,0-9,1.57-11.28,7.51M98.19,51.33a.88.88,0,0,1,0,1.22,19.31,19.31,0,0,1-14.39,5.74c-11.89,0-19.27-8-19.27-17.7,0-10,7.79-18,18.38-18,8.8,0,17,5.53,17.41,17.54a.88.88,0,0,1-.89.91H71.17c-.21,6.62,5.12,11.34,12.7,11.34a16.47,16.47,0,0,0,10.58-3.79.9.9,0,0,1,1.2.07Z"/><path class="cls-1" d="M514.43,57.53h-6.3a.88.88,0,0,1-.83-.56l-12.51-32.4a.89.89,0,0,1,.83-1.2h5.07a.89.89,0,0,1,.83.57l9.76,26.28L521,23.94a.89.89,0,0,1,.83-.57h5.07a.88.88,0,0,1,.82,1.2L515.25,57a.88.88,0,0,1-.82.56"/><path class="cls-1" d="M549.07,28.49c-7.11,0-11.14,5.47-11.14,12s4,12,11.14,12c6.9,0,11.61-5.06,11.68-12s-4.78-12-11.68-12m-.82-5.87a14.36,14.36,0,0,1,12.37,6.21V24.25a.87.87,0,0,1,.88-.88h4.86a.88.88,0,0,1,.89.88v32.4a.88.88,0,0,1-.89.88H561.5a.87.87,0,0,1-.88-.88V52.07a14.37,14.37,0,0,1-12.37,6.22c-10.25,0-17-8.07-17-17.84s6.7-17.83,17-17.83"/><path class="cls-1" d="M602.37,38.26c0-7.24-3.35-9.77-7-9.77s-11,2.4-11,13.19v15a.88.88,0,0,1-.88.88h-4.87a.88.88,0,0,1-.88-.88V24.25a.88.88,0,0,1,.88-.88h4.87a.88.88,0,0,1,.88.88V30.2c1.43-4.85,5.88-7.59,11.48-7.59,7.38,0,13.12,4.65,13.12,15.65V56.65a.88.88,0,0,1-.88.88h-4.87a.88.88,0,0,1-.88-.88Z"/><path class="cls-1" d="M635.15,31.89a.89.89,0,0,1-1-.48,5,5,0,0,0-5.07-3.12c-3.07,0-5.06,1.91-5.06,4.37,0,2.26,2.05,3.42,4.11,4.1l4.91,1.64c6.5,2,8.2,6,8.2,9.64,0,6.49-5.67,10.25-12.3,10.25-5.68,0-11-2.75-12.89-8a.89.89,0,0,1,.62-1.17l4.21-1a.86.86,0,0,1,1,.48c1.09,2.39,3.94,4,7.13,4,3.42,0,5.88-2,5.88-4.64,0-2.32-1.91-3.49-4.3-4.31L626,42.09c-5.47-1.64-8.41-4.58-8.41-9.29,0-5.81,4.51-10.18,11.28-10.18,4.52,0,9,1.77,11.07,7.15a.89.89,0,0,1-.63,1.19Z"/><path class="cls-2" d="M415.55,28.5c-4,0-9,1.58-11.28,7.52H426C424.16,29.8,419.31,28.5,415.55,28.5Z"/><path class="cls-2" d="M338.79,28.57c-6.22,0-11.27,5.4-11.27,12s5.05,11.89,11.27,11.89A11.62,11.62,0,0,0,350.14,40.6C350.14,34,345.08,28.57,338.79,28.57Z"/><path class="cls-2" d="M273.38,28.57c-6.9,0-11.62,5.06-11.69,12s4.79,12,11.69,12c7.11,0,11.14-5.46,11.14-12S280.49,28.57,273.38,28.57Z"/><path class="cls-2" d="M475.59,0H250.91a8,8,0,0,0-8,7.94V59.6a8,8,0,0,0,8,7.94H475.59a8,8,0,0,0,8-7.94V7.94A8,8,0,0,0,475.59,0ZM274.2,58.37a14.34,14.34,0,0,1-12.37-6.22v5.47H255.2V8.21h6.63v20.7a14.37,14.37,0,0,1,12.37-6.22c10.25,0,16.95,8.07,16.95,17.84S284.45,58.37,274.2,58.37Zm43.95-28.43a7.41,7.41,0,0,0-3.62-.89c-2.26,0-8.68,1.09-8.68,15.65V57.62h-6.63V23.45h6.63v7.72c1.16-5.4,4.92-8.48,9.15-8.48a7.61,7.61,0,0,1,3.15.76Zm20.64,28.43a17.84,17.84,0,1,1,18-17.84A17.87,17.87,0,0,1,338.79,58.37Zm50.17,0c-6.56,0-8.75-4.44-10.8-7.24l-6.9-11.08V57.62h-6.63V8.21h6.63V37.8L383,23.45h7.39v.75l-12.51,15L383.7,48c2,2.8,2.94,4.58,6,4.58a7.33,7.33,0,0,0,4.44-1.3l2.26,4.45C393.74,58.51,389.71,58.37,389,58.37Zm27.41-5.88a16.63,16.63,0,0,0,11.21-4.3L431.27,52a19.23,19.23,0,0,1-15,6.36c-11.89,0-19.27-8-19.27-17.7,0-10,7.79-18,18.38-18,9,0,17.43,5.81,17.43,18.46H403.66C403.45,47.78,408.78,52.49,416.37,52.49Zm55.15,5.13H464.9V38.34c0-7.24-3.35-9.77-7-9.77s-11,2.39-11,13.19V57.62h-6.63V23.45h6.63v6.83c1.44-4.85,5.88-7.59,11.48-7.59,7.38,0,13.12,4.65,13.12,15.65Z"/></g></g></svg>
